<svg width="60" height="31" viewBox="0 0 60 31" fill="none" xmlns="http://www.w3.org/2000/svg">
<rect y="0.945312" width="60" height="30.0537" rx="2" fill="white"/>
<path d="M33.5406 16.1798C33.5406 22.0181 28.7184 26.7502 22.77 26.7502C16.8216 26.7502 12 22.0179 12 16.1798C12 10.342 16.8217 5.60938 22.77 5.60938C28.7182 5.60938 33.5406 10.3422 33.5406 16.1798Z" fill="#D9222A"/>
<path d="M37.2312 5.60938C34.4484 5.60938 31.9126 6.64557 30.0011 8.34567C29.6117 8.69246 29.2483 9.06628 28.9136 9.4643H31.0896C31.3876 9.81981 31.6618 10.1938 31.9107 10.5839H28.0926C27.863 10.9444 27.6558 11.3182 27.4721 11.7033H32.5309C32.7045 12.0675 32.8567 12.4412 32.9869 12.8224H27.0161C26.8907 13.1896 26.7862 13.5633 26.7031 13.9418H33.2995C33.4609 14.6773 33.5422 15.4276 33.542 16.18C33.542 17.3539 33.3468 18.4833 32.9868 19.5378H27.016C27.1459 19.9193 27.298 20.293 27.4717 20.6573H32.5308C32.3469 21.0424 32.1396 21.4163 31.9099 21.7769H28.0924C28.3417 22.1673 28.6162 22.5412 28.9135 22.8955H31.089C30.7548 23.2943 30.3912 23.6685 30.0012 24.0151C31.9128 25.715 34.4483 26.7507 37.2312 26.7507C43.1795 26.7506 48.0018 22.0183 48.0018 16.1803C48.0018 10.3427 43.1796 5.6099 37.2312 5.6099" fill="#EE9F2D"/>
<path d="M17.7122 18.9628H16.5427L17.2129 14.8414L15.7174 18.9628H14.9205L14.822 14.8649L14.118 18.9628H13.0234L13.9377 13.6016H15.6189L15.6662 16.9206L16.8004 13.6016H18.6165L17.7122 18.9628Z" fill="white"/>
<path d="M20.5926 17.0219C20.4701 17.008 20.4159 17.0043 20.3319 17.0043C19.6691 17.0043 19.3338 17.2273 19.3338 17.6678C19.3338 17.9389 19.4976 18.1122 19.7526 18.1122C20.2293 18.1121 20.5726 17.6671 20.5926 17.0219ZM21.4434 18.9643H20.4746L20.4966 18.513C20.2014 18.8696 19.8066 19.0401 19.2714 19.0401C18.6373 19.0401 18.2031 18.5543 18.2031 17.8488C18.2031 16.787 18.9586 16.1681 20.2561 16.1681C20.3886 16.1681 20.5586 16.1798 20.7324 16.2017C20.7686 16.0579 20.7781 15.9963 20.7781 15.9186C20.7781 15.6295 20.5746 15.5222 20.0283 15.5222C19.4561 15.5159 18.9846 15.656 18.7906 15.7179C18.8028 15.6457 18.9526 14.7381 18.9526 14.7381C19.5351 14.5698 19.9198 14.5067 20.3518 14.5067C21.3561 14.5067 21.8881 14.9494 21.8871 15.7848C21.8889 16.0098 21.8508 16.2861 21.7921 16.649C21.6909 17.2806 21.4729 18.635 21.4434 18.9643ZM37.1262 13.7473L36.9346 14.9113C36.5176 14.7055 36.2146 14.6215 35.8902 14.6215C35.0172 14.6215 34.4052 15.4494 34.4052 16.63C34.4052 17.4439 34.8166 17.9362 35.4962 17.9362C35.7842 17.9362 36.102 17.8484 36.4894 17.6608L36.2842 18.8827C35.8532 18.9981 35.5753 19.0401 35.2507 19.0401C33.9921 19.0401 33.2077 18.1518 33.2077 16.7253C33.2077 14.8085 34.2912 13.4688 35.841 13.4688C36.3514 13.4688 36.9547 13.6813 37.1262 13.7473ZM39.0127 17.0219C38.8902 17.008 38.8362 17.0043 38.7519 17.0043C38.0894 17.0043 37.7539 17.2273 37.7539 17.6678C37.7539 17.9389 37.9176 18.1122 38.1729 18.1122C38.6491 18.1121 38.9926 17.6671 39.0127 17.0219ZM39.8634 18.9643H38.8944L38.9166 18.513C38.6212 18.8696 38.2266 19.0401 37.6914 19.0401C37.0576 19.0401 36.6232 18.5543 36.6232 17.8488C36.6232 16.787 37.3789 16.1681 38.6759 16.1681C38.8087 16.1681 38.9784 16.1798 39.1523 16.2017C39.1884 16.0579 39.1981 15.9963 39.1981 15.9186C39.1981 15.6295 38.9946 15.5222 38.4484 15.5222C37.8764 15.5159 37.4046 15.656 37.2106 15.7179C37.2229 15.6457 37.3729 14.7381 37.3729 14.7381C37.9554 14.5698 38.3398 14.5067 38.7718 14.5067C39.7764 14.5067 40.3081 14.9494 40.3068 15.7848C40.3089 16.0098 40.2711 16.2861 40.2121 16.649C40.1112 17.2806 39.8926 18.635 39.8634 18.9643ZM26.64 18.8982C26.3197 18.9972 26.0703 19.0401 25.8 19.0401C25.2022 19.0401 24.876 18.7029 24.876 18.0822C24.8677 17.889 24.9622 17.3826 25.0365 16.9199C25.1037 16.512 25.5433 13.9441 25.5433 13.9441H26.7053L26.5698 14.6043H27.1663L27.0075 15.6518H26.409C26.274 16.4816 26.0812 17.5138 26.0793 17.651C26.0793 17.8766 26.2018 17.9739 26.4795 17.9739C26.6127 17.9739 26.7158 17.9611 26.7948 17.9332L26.64 18.8982ZM30.2035 18.8634C29.8045 18.9831 29.4187 19.0409 29.0107 19.0401C27.7097 19.0389 27.0315 18.3719 27.0315 17.0948C27.0315 15.6037 27.8943 14.5067 29.0655 14.5067C30.0237 14.5067 30.6357 15.1209 30.6357 16.0849C30.6357 16.4049 30.5937 16.717 30.4928 17.1574H28.1783C28.0999 17.7899 28.5124 18.0537 29.1885 18.0537C29.6043 18.0537 29.9798 17.9693 30.3967 17.7784L30.2035 18.8634ZM29.55 16.2775C29.557 16.187 29.6736 15.4992 29.0092 15.4992C28.6393 15.4992 28.3745 15.777 28.2667 16.2775H29.55ZM22.1448 15.9829C22.1448 16.5343 22.4173 16.9142 23.0353 17.2004C23.5088 17.4187 23.5821 17.4837 23.5821 17.6815C23.5821 17.9534 23.3731 18.076 22.9108 18.076C22.5618 18.076 22.2373 18.0226 21.8628 17.9041C21.8628 17.9041 21.7096 18.8651 21.7026 18.9111C21.9678 18.968 22.2051 19.02 22.9191 19.0401C24.1531 19.0401 24.7226 18.5791 24.7226 17.5828C24.7226 16.9834 24.4843 16.6318 23.8983 16.3676C23.4083 16.1463 23.3516 16.0977 23.3516 15.8938C23.3516 15.6582 23.5463 15.537 23.9241 15.537C24.1533 15.537 24.4668 15.5618 24.7643 15.6033L24.9306 14.5916C24.6281 14.5445 24.1691 14.5067 23.9018 14.5067C22.5936 14.5067 22.1411 15.1768 22.1448 15.9829ZM46.0518 18.9643H44.9456L45.0006 18.5584C44.6798 18.8951 44.3511 19.0401 43.9226 19.0401C43.0725 19.0401 42.5108 18.3209 42.5108 17.2308C42.5108 15.7803 43.382 14.5576 44.4133 14.5576C44.8668 14.5576 45.2101 14.7395 45.5296 15.1522L45.7891 13.603H46.9423L46.0518 18.9643ZM44.3271 17.9568C44.8716 17.9568 45.2541 17.3512 45.2541 16.4874C45.2541 15.9335 45.0363 15.6329 44.6346 15.6329C44.1043 15.6329 43.7276 16.2405 43.7276 17.0978C43.7276 17.6682 43.9291 17.9568 44.3271 17.9568ZM40.9165 14.6043C40.7702 15.9539 40.5102 17.3209 40.3068 18.6713L40.2534 18.9643H41.4228C41.8411 16.2981 41.9423 15.7775 42.5981 15.8427C42.7026 15.297 42.897 14.8191 43.042 14.5778C42.5522 14.4777 42.2788 14.7494 41.9207 15.2654C41.949 15.0424 42.0008 14.8257 41.9905 14.6043H40.9165ZM31.2913 14.6043C31.1446 15.9539 30.8845 17.3209 30.6813 18.6713L30.6281 18.9643H31.7981C32.2158 16.2981 32.3169 15.7775 32.9722 15.8427C33.0772 15.297 33.2718 14.8191 33.4162 14.5778C32.927 14.4777 32.6533 14.7494 32.2956 15.2654C32.3238 15.0424 32.3751 14.8257 32.3653 14.6043H31.2913ZM46.5655 18.623C46.5655 18.4337 46.7213 18.2814 46.9133 18.2814C47.1051 18.2813 47.2608 18.4338 47.261 18.6221V18.623C47.2609 18.8114 47.1053 18.9642 46.9133 18.9643C46.7213 18.9642 46.5656 18.8114 46.5655 18.623ZM46.9133 18.8823C47.0592 18.8824 47.1775 18.7663 47.1775 18.6232V18.623C47.1776 18.4798 47.0594 18.3636 46.9135 18.3635H46.9133C46.7672 18.3635 46.6488 18.4797 46.6487 18.623C46.6489 18.7663 46.7673 18.8823 46.9133 18.8823ZM46.8662 18.7722H46.795V18.4728H46.9242C46.951 18.4728 46.9787 18.4733 47.002 18.4878C47.0269 18.5044 47.0412 18.5329 47.0412 18.5628C47.0412 18.5967 47.0209 18.6283 46.9879 18.6404L47.0444 18.772H46.9652L46.9184 18.6538H46.8662V18.772V18.7722ZM46.8662 18.6026H46.9055C46.9202 18.6026 46.9363 18.6037 46.9492 18.5967C46.9609 18.5894 46.9669 18.5755 46.9669 18.5622C46.9664 18.5498 46.96 18.5384 46.9497 18.5313C46.9375 18.5244 46.9172 18.5263 46.9039 18.5263H46.8662L46.8662 18.6026Z" fill="white"/>
</svg>
