<svg width="211" height="31" viewBox="0 0 211 31" fill="none" xmlns="http://www.w3.org/2000/svg">
<path d="M14.8722 17.2246C7.77975 17.2246 1.80824 14.6877 0 11.2324V30.3989H29.97V10.7461C28.4899 14.4472 22.2936 17.2246 14.8722 17.2246Z" fill="url(#paint0_linear_3274_25413)"/>
<path d="M0 0V6.84914V11.2332C1.80824 14.6885 7.77975 17.2254 14.8722 17.2254C22.2936 17.2254 28.4899 14.448 29.97 10.7469V7.3354V0H0Z" fill="url(#paint1_linear_3274_25413)"/>
<path d="M16.2351 16.8539C16.2351 16.1617 15.6821 15.6016 15.0005 15.6016C14.3186 15.6016 13.7656 16.1617 13.7656 16.8539C13.7656 17.3779 14.0829 17.8251 14.5328 18.012V18.851H13.8322V19.7319H16.1687V18.851H15.4679V18.012C15.9176 17.8256 16.2351 17.3782 16.2351 16.8539Z" fill="white"/>
<path d="M20.785 5.95557C17.0233 6.00784 15.4938 4.79218 14.9902 4.23438C14.4861 4.79192 12.9574 6.00784 9.19539 5.95557C9.19539 5.95557 7.33562 5.95557 5.99219 5.95557C6.19909 9.71395 6.61237 16.806 6.9926 20.8513C6.9926 20.8513 8.77352 23.8378 14.9902 26.7458C21.2071 23.8375 22.988 20.8513 22.988 20.8513C23.3675 16.806 23.7813 9.71421 23.9885 5.95557C22.6443 5.95557 20.785 5.95557 20.785 5.95557ZM20.0768 20.9862H9.93086V14.2162H11.4018V12.286C11.4018 10.2715 13.0175 8.63292 15.004 8.63292C16.9895 8.63292 18.6051 10.2715 18.6051 12.286V14.2162H20.0763V20.9862H20.0768Z" fill="white"/>
<path d="M15.0113 9.91016C13.7217 9.91016 12.6719 10.9743 12.6719 12.2829V14.2131H17.3499V12.2829C17.3496 10.9743 16.3008 9.91016 15.0113 9.91016Z" fill="white"/>
<path d="M44.4959 21.3703L41.1983 21.3303L37.3047 7.26953L40.3848 7.3071C42.0056 13.7999 42.8623 17.4555 42.9558 18.2744L42.9919 18.2754C43.2992 16.7821 43.7209 15.1 44.2566 13.2277L45.9467 7.37406L48.918 7.41019L44.4959 21.3703Z" fill="white"/>
<path d="M57.6944 13.0256L57.664 15.6243L52.9716 15.568L52.9326 18.8522L58.1692 18.9153L58.1384 21.5348L50.0938 21.4375L50.2585 7.42578L58.0491 7.51971L58.0187 10.1392L53.0362 10.079L53.0024 12.9687L57.6944 13.0256Z" fill="white"/>
<path d="M60.0625 21.5617L60.2249 7.73736C61.254 7.54227 62.5177 7.45316 64.0155 7.47098C65.8633 7.49362 67.1877 7.86019 67.9889 8.56974C68.79 9.27929 69.1828 10.2851 69.1671 11.5881C69.1576 12.3641 68.9458 13.0635 68.5312 13.6854C68.1162 14.3083 67.5838 14.7437 66.9346 14.9923L66.9337 15.0756C67.6911 15.4104 68.2301 16.2755 68.5521 17.6729C69.1452 20.1898 69.4677 21.5237 69.5199 21.6773L66.6573 21.6426C66.4213 21.1205 66.1444 20.0289 65.8262 18.3676C65.6671 17.5347 65.444 16.9504 65.1581 16.6137C64.8717 16.277 64.4087 16.105 63.769 16.0973L62.899 16.0872L62.8344 21.5969L60.0625 21.5617ZM62.9717 9.93344L62.9266 13.7789L64.0858 13.7928C64.7862 13.8015 65.3409 13.6262 65.7503 13.2668C66.1591 12.9084 66.3671 12.4205 66.3743 11.8034C66.3814 11.1873 66.2042 10.709 65.8433 10.3679C65.4819 10.0274 64.9657 9.85348 64.2957 9.84529C63.6375 9.8371 63.1963 9.86648 62.9717 9.93344Z" fill="white"/>
<path d="M71.2429 7.67969L74.0514 7.71341L73.8866 21.7256L71.0781 21.6919L71.2429 7.67969Z" fill="white"/>
<path d="M76.3203 21.7539L76.4851 7.74219L84.2034 7.83516L84.173 10.4546L79.2627 10.3954L79.2252 13.5766L83.8092 13.632L83.7788 16.2307L79.1948 16.1753L79.1288 21.7881L76.3203 21.7539Z" fill="white"/>
<path d="M86.3054 7.86328L89.1139 7.897L88.9491 21.9092L86.1406 21.8755L86.3054 7.86328Z" fill="white"/>
<path d="M98.9834 13.529L98.953 16.1282L94.2602 16.0719L94.2217 19.3561L99.4583 19.4192L99.4274 22.0387L91.3828 21.9419L91.5476 7.92969L99.3386 8.0241L99.3082 10.6436L94.3257 10.5834L94.2915 13.4726L98.9834 13.529Z" fill="white"/>
<path d="M101.359 21.9979L101.521 8.23617C102.731 8.04349 104.025 7.95389 105.403 7.97075C108.005 8.00206 109.866 8.65043 110.983 9.91442C112.101 11.1794 112.648 12.8196 112.625 14.836C112.596 17.2204 111.93 19.0595 110.625 20.3529C109.32 21.6477 107.324 22.2782 104.637 22.246C103.392 22.231 102.301 22.1482 101.359 21.9979ZM104.303 10.5565L104.195 19.6823C104.352 19.7262 104.69 19.7507 105.209 19.757C106.604 19.7734 107.689 19.3664 108.462 18.534C109.237 17.7006 109.633 16.4978 109.651 14.9246C109.668 13.4833 109.332 12.3812 108.644 11.6177C107.955 10.8542 106.955 10.4636 105.645 10.4477C105.095 10.4414 104.648 10.4775 104.303 10.5565Z" fill="white"/>
<path d="M129.415 22.3969L126.154 22.3574C125.885 22.0631 125.611 21.7206 125.332 21.3285C124.38 22.1484 123.228 22.5501 121.876 22.5337C120.51 22.5174 119.446 22.1253 118.681 21.3574C117.918 20.5896 117.542 19.6402 117.555 18.5106C117.576 16.7514 118.383 15.4161 119.976 14.5062L119.977 14.4234C119.359 13.605 119.055 12.7138 119.067 11.7504C119.078 10.7388 119.43 9.87034 120.121 9.14393C120.812 8.41801 121.726 8.06156 122.861 8.07456C123.852 8.0866 124.66 8.40019 125.287 9.01339C125.914 9.62756 126.222 10.4228 126.21 11.4002C126.192 12.8834 125.364 14.0722 123.722 14.9667L123.703 15.0289L125.738 17.6527C126.268 16.7307 126.651 15.5847 126.884 14.2148L129.385 14.2451C128.995 16.5554 128.279 18.3348 127.238 19.5843C128.183 20.8295 128.908 21.7669 129.415 22.3969ZM121.244 16.0607C120.573 16.5997 120.234 17.2476 120.225 18.0024C120.218 18.6262 120.403 19.1474 120.782 19.5689C121.16 19.9889 121.661 20.2023 122.283 20.21C122.984 20.2187 123.56 19.9904 124.013 19.5246C123.427 18.8589 122.505 17.7042 121.244 16.0607ZM122.453 13.4763C122.946 13.1146 123.298 12.7832 123.511 12.4811C123.723 12.1782 123.831 11.8362 123.836 11.4556C123.841 11.0813 123.745 10.7581 123.549 10.4845C123.352 10.2128 123.091 10.0736 122.765 10.0698C122.421 10.0659 122.143 10.2003 121.932 10.471C121.72 10.7417 121.612 11.0755 121.607 11.4696C121.599 12.1213 121.881 12.7894 122.453 13.4763Z" fill="white"/>
<path d="M134.047 21.7876L134.658 19.1541C135.695 19.777 136.754 20.0944 137.835 20.1074C138.458 20.1151 138.943 19.9855 139.294 19.7192C139.644 19.4533 139.822 19.0852 139.828 18.6137C139.833 18.1902 139.68 17.8357 139.369 17.5472C139.058 17.2596 138.518 16.9614 137.749 16.6546C135.427 15.7393 134.279 14.3328 134.301 12.4334C134.315 11.207 134.756 10.2017 135.623 9.41847C136.49 8.63667 137.636 8.25275 139.061 8.27009C140.305 8.28503 141.39 8.54129 142.314 9.03744L141.65 11.5861C140.804 11.1189 139.918 10.8799 138.995 10.8689C138.427 10.8616 137.982 10.9811 137.659 11.2258C137.336 11.4715 137.172 11.7957 137.167 12.1979C137.163 12.5659 137.294 12.8809 137.559 13.1435C137.826 13.407 138.466 13.7523 139.481 14.1796C140.605 14.6512 141.425 15.2273 141.939 15.9099C142.454 16.5915 142.704 17.4349 142.693 18.4393C142.678 19.7283 142.225 20.7702 141.334 21.5626C140.443 22.3555 139.206 22.7423 137.624 22.7235C136.271 22.7081 135.078 22.396 134.047 21.7876Z" fill="white"/>
<path d="M152.187 14.1657L152.157 16.765L147.463 16.7081L147.425 19.9923L152.661 20.0559L152.631 22.6754L144.586 22.5781L144.751 8.56641L152.542 8.66034L152.511 11.2798L147.529 11.2196L147.495 14.1093L152.187 14.1657Z" fill="white"/>
<path d="M163.475 19.9011L163.881 22.4007C163.042 22.8202 161.947 23.0211 160.594 23.0047C158.534 22.9802 156.925 22.3183 155.766 21.0187C154.606 19.7195 154.038 18.0056 154.063 15.878C154.09 13.6323 154.751 11.8418 156.047 10.506C157.343 9.17124 159.001 8.51516 161.018 8.53973C162.377 8.55562 163.431 8.78347 164.181 9.22278L163.572 11.7517C162.82 11.3678 162.001 11.1713 161.114 11.1602C159.887 11.1457 158.903 11.5427 158.16 12.3509C157.416 13.1597 157.036 14.2855 157.019 15.7267C157.002 17.1333 157.35 18.2518 158.062 19.0813C158.774 19.9112 159.762 20.3342 161.023 20.3496C161.935 20.3602 162.752 20.2104 163.475 19.9011Z" fill="white"/>
<path d="M165.92 8.82422L168.728 8.85794L168.635 16.7988C168.621 18.0184 168.809 18.9539 169.2 19.6022C169.591 20.2521 170.16 20.5806 170.91 20.5897C172.492 20.609 173.298 19.3648 173.328 16.8556L173.421 8.9143L176.229 8.94802L176.138 16.7231C176.113 18.8373 175.644 20.4375 174.732 21.5247C173.819 22.6129 172.505 23.1456 170.789 23.1244C167.432 23.084 165.778 20.8951 165.829 16.5574L165.92 8.82422Z" fill="white"/>
<path d="M178.5 22.9876L178.663 9.16324C179.692 8.96815 180.956 8.87856 182.453 8.89686C184.301 8.91902 185.625 9.28608 186.427 9.99514C187.228 10.7052 187.62 11.7114 187.604 13.0135C187.595 13.7895 187.383 14.4889 186.969 15.1108C186.554 15.7332 186.021 16.1691 185.373 16.4172L185.371 16.501C186.129 16.8358 186.668 17.7014 186.99 19.0983C187.582 21.6147 187.905 22.949 187.957 23.1022L185.095 23.0675C184.859 22.5454 184.582 21.4538 184.264 19.7934C184.104 18.9601 183.881 18.3758 183.596 18.0386C183.31 17.7024 182.847 17.5304 182.206 17.5232L181.336 17.5126L181.272 23.0218L178.5 22.9876ZM181.409 11.3584L181.364 15.2043L182.524 15.2182C183.224 15.2269 183.779 15.0516 184.188 14.6922C184.596 14.3338 184.805 13.8454 184.811 13.2293C184.819 12.6127 184.642 12.1344 184.28 11.7933C183.918 11.4533 183.403 11.2794 182.733 11.2707C182.075 11.2635 181.634 11.2919 181.409 11.3584Z" fill="white"/>
<path d="M197.109 14.7126L197.079 17.3118L192.386 17.255L192.347 20.5392L197.583 20.6028L197.552 23.2223L189.508 23.125L189.673 9.11328L197.464 9.20721L197.433 11.8267L192.451 11.7665L192.417 14.6567L197.109 14.7126Z" fill="white"/>
<path d="M199.477 23.1814L199.638 9.4192C200.848 9.22652 202.143 9.13788 203.52 9.15426C206.122 9.18557 207.983 9.83394 209.101 11.0979C210.218 12.3629 210.766 14.0026 210.742 16.0195C210.713 18.4039 210.047 20.243 208.743 21.5364C207.438 22.8307 205.441 23.4617 202.754 23.4295C201.51 23.4145 200.418 23.3317 199.477 23.1814ZM202.42 11.74L202.313 20.8658C202.468 20.9097 202.806 20.9342 203.326 20.94C204.721 20.9569 205.806 20.5494 206.58 19.717C207.353 18.8841 207.75 17.6808 207.769 16.1081C207.786 14.6668 207.449 13.5642 206.761 12.8012C206.073 12.0372 205.072 11.6471 203.762 11.6316C203.212 11.6254 202.766 11.661 202.42 11.74Z" fill="white"/>
<defs>
<linearGradient id="paint0_linear_3274_25413" x1="14.9851" y1="10.7461" x2="14.9851" y2="30.3991" gradientUnits="userSpaceOnUse">
<stop stop-color="#89C13D"/>
<stop offset="1" stop-color="#9AD304"/>
</linearGradient>
<linearGradient id="paint1_linear_3274_25413" x1="14.9851" y1="0" x2="14.9851" y2="17.2257" gradientUnits="userSpaceOnUse">
<stop stop-color="#93CC45"/>
<stop offset="1" stop-color="#B2D455"/>
</linearGradient>
</defs>
</svg>
